<svg xmlns="http://www.w3.org/2000/svg" viewBox="0 0 396.89 496.4"><title>Asset 3</title><g id="Layer_2" data-name="Layer 2"><g id="Layer_1-2" data-name="Layer 1"><path d="M0,380.13V106.8C0,90.07.31,71.86,11.63,58.37,24.13,43.45,44.5,38.48,63.19,38.7c57.26.69,190.48,0,190.48,0s93.87,6.43,122.46,103.45c0,0,23.29,49.92-17.26,115.7L290.93,377.47c-7.1,12.5-17.72,23.83-32.34,27.3-15.65,3.72-33.86.17-46.34-10.17-15.4-12.76-18.25-33.81-12.67-52.16,3-9.83,8.73-18.22,13.77-27.06L234,279.18c9.37-16.45,19.61-32.62,28.21-49.48,8-15.74,18.62-31.12,20-49.24s-5.63-37.12-17.29-51a79.13,79.13,0,0,0-6.5-6.83c-37.59-35-94.29-24.21-117.22,14.65S0,380.13,0,380.13Z"/><path d="M19.58,400.19,158.52,159s25.19-45.8,65.65-26.72a52.35,52.35,0,0,1,28.65,35.53c4.07,18.5-4.36,35-14,50.21-7.35,11.53-13.92,23.33-20.68,35.21L204.9,276.4c-13.05,23-30.77,45.21-34.79,72a70.38,70.38,0,0,0,14.08,53.72c7.86,10,18.19,17.88,29.29,24,0,0,56.5,27.48,93.9-26.72s68.7-119.07,68.71-119.08c-.41.84,2.38,6.09,2.69,7a172.77,172.77,0,0,1,5.48,19.45c4.59,20.78,5.69,42.47,2.17,63.5-8.32,49.89-44.84,96.62-91.76,115.78a138.14,138.14,0,0,1-19.93,6.42c-18.49,4.43-37.14,3.89-56,3.89H63c-11.33,0-19.77-.38-30.17-4.51C8.13,482.08-5.23,460.82,2.37,434.28,5.89,422,12.38,410.65,19.58,400.19Z"/><circle cx="367.45" cy="29.44" r="29.44"/></g></g></svg>